<?xml version="1.0" standalone="no"?>
<!DOCTYPE svg PUBLIC "-//W3C//DTD SVG 20010904//EN"
 "http://www.w3.org/TR/2001/REC-SVG-20010904/DTD/svg10.dtd">
<svg version="1.0" xmlns="http://www.w3.org/2000/svg"
 width="700.000000pt" height="700.000000pt" viewBox="0 0 700.000000 700.000000"
 preserveAspectRatio="xMidYMid meet">
<metadata>
Created by potrace 1.11, written by Peter Selinger 2001-2013
</metadata>
<g transform="translate(0.000000,700.000000) scale(0.100000,-0.100000)"
fill="#000000" stroke="none">
<path d="M1136 6809 c-366 -54 -684 -279 -864 -609 -42 -77 -105 -253 -117
-325 -4 -22 -9 -51 -11 -65 -8 -39 -10 -4507 -3 -4580 30 -272 144 -513 337
-706 173 -174 421 -299 663 -333 84 -12 4527 -11 4569 2 14 3 39 9 55 13 71
13 197 60 285 105 340 174 568 496 627 884 4 28 7 1069 7 2315 0 2118 -1 2271
-18 2355 -65 334 -274 631 -561 796 -122 70 -173 90 -330 132 l-80 21 -2250 2
c-1241 1 -2277 -2 -2309 -7z m4354 -170 c237 -2 392 -47 575 -164 83 -53 223
-195 279 -283 70 -108 130 -255 142 -347 3 -22 9 -53 13 -70 10 -38 7 -4527
-3 -4580 -77 -425 -387 -739 -811 -822 -22 -4 -1050 -8 -2285 -8 l-2245 0 -90
24 c-385 100 -680 421 -741 807 -9 61 -13 4514 -3 4569 4 22 9 58 13 80 3 22
15 69 26 105 86 262 268 471 514 590 124 60 236 89 381 97 61 3 111 6 112 7 2
1 3968 -3 4123 -5z"/>
<path d="M2469 5758 c40 -101 95 -188 144 -228 l31 -25 801 -3 c582 -2 808 1
828 9 50 21 106 102 160 232 l16 37 -994 0 -995 0 9 -22z"/>
<path d="M2888 5318 c-13 -3 -38 -6 -56 -7 -24 -1 -35 -7 -44 -26 -19 -41 2
-70 69 -95 161 -59 214 -146 230 -375 9 -126 9 -2676 1 -2805 -13 -178 -35
-232 -118 -285 -19 -12 -52 -27 -72 -34 -40 -13 -57 -29 -63 -60 -2 -14 3 -22
18 -27 27 -9 2089 -8 2117 1 14 4 20 15 20 35 0 32 -5 34 -88 44 -122 15 -176
47 -214 128 -33 68 -37 87 -45 206 -9 128 -9 2038 0 2124 14 131 29 143 182
135 166 -10 294 -64 418 -178 78 -71 134 -149 170 -235 42 -100 52 -160 51
-304 0 -120 -3 -144 -27 -213 -69 -199 -206 -327 -388 -362 -80 -15 -182 -13
-252 5 -41 11 -51 10 -63 -1 -25 -26 8 -56 89 -81 102 -31 262 -31 367 1 247
75 456 297 516 548 25 105 27 319 3 417 -70 289 -315 495 -643 539 -122 17
-325 13 -428 -9 -58 -12 -299 -12 -377 0 -141 22 -195 11 -189 -38 4 -23 14
-29 106 -57 147 -44 172 -97 189 -404 9 -164 9 -1556 0 -1730 -13 -252 -40
-347 -114 -398 -57 -39 -92 -49 -143 -42 -104 16 -136 45 -179 160 -53 140
-54 182 -54 1570 0 1289 2 1360 39 1510 27 108 49 142 128 192 39 25 75 53 81
62 30 50 6 91 -53 92 -253 4 -1167 2 -1184 -3z m684 -389 c10 -19 22 -57 27
-84 15 -79 8 -2851 -7 -2896 -17 -49 -33 -61 -87 -61 -90 0 -106 36 -122 267
-13 195 -8 2674 5 2722 17 59 55 88 117 88 47 0 51 -2 67 -36z"/>
<path d="M2720 4459 c-86 -19 -383 -28 -480 -16 -195 24 -230 20 -230 -29 0
-27 8 -32 108 -60 85 -24 137 -69 156 -137 14 -50 17 -71 32 -202 10 -82 12
-1582 3 -1624 -17 -77 -35 -67 -99 54 -23 44 -55 103 -70 130 -37 67 -87 161
-145 270 -26 50 -55 104 -65 120 -10 17 -41 75 -70 130 -29 55 -70 131 -92
168 -21 38 -38 70 -38 72 0 6 -180 336 -260 475 -138 243 -181 386 -136 455 9
14 39 41 65 60 72 52 75 115 6 114 -35 0 -615 -7 -662 -8 -22 -1 -34 -7 -38
-20 -10 -32 5 -48 53 -61 108 -27 149 -43 175 -68 54 -51 269 -408 392 -651
36 -69 84 -162 108 -206 24 -44 67 -125 96 -180 30 -55 68 -127 86 -160 18
-33 77 -143 132 -245 55 -102 124 -230 153 -285 55 -103 92 -174 140 -260 35
-65 83 -153 155 -290 32 -60 77 -144 99 -185 23 -41 50 -94 60 -117 18 -41 62
-73 101 -73 55 0 90 65 100 185 4 44 9 96 11 115 3 19 6 531 7 1136 3 1271 -7
1152 103 1205 34 16 67 29 73 29 6 0 40 13 75 29 76 34 95 60 71 97 -27 42
-82 52 -175 33z"/>
<path d="M1711 1409 c-113 -21 -255 -115 -370 -242 l-24 -27 2101 0 2102 0
-17 28 c-50 78 -173 176 -276 221 l-62 26 -1705 1 c-938 1 -1725 -3 -1749 -7z"/>
</g>
</svg>
