<?xml version="1.0" encoding="UTF-8" standalone="no"?>
<!-- Generator: Adobe Illustrator 15.0.0, SVG Export Plug-In  -->

<svg
   xmlns:dc="http://purl.org/dc/elements/1.1/"
   xmlns:cc="http://creativecommons.org/ns#"
   xmlns:rdf="http://www.w3.org/1999/02/22-rdf-syntax-ns#"
   xmlns:svg="http://www.w3.org/2000/svg"
   xmlns="http://www.w3.org/2000/svg"
   xmlns:sodipodi="http://sodipodi.sourceforge.net/DTD/sodipodi-0.dtd"
   xmlns:inkscape="http://www.inkscape.org/namespaces/inkscape"
   version="1.1"
   x="0px"
   y="0px"
   width="78px"
   height="78px"
   viewBox="-1.5 -2 78 78"
   overflow="visible"
   enable-background="new -1.5 -2 78 78"
   xml:space="preserve"
   id="svg4606"
   sodipodi:docname="VIPLog5_trans.svg"
   inkscape:version="0.92.4 (f8dce91, 2019-08-02)"><metadata
   id="metadata4610"><rdf:RDF><cc:Work
       rdf:about=""><dc:format>image/svg+xml</dc:format><dc:type
         rdf:resource="http://purl.org/dc/dcmitype/StillImage" /><dc:title></dc:title></cc:Work></rdf:RDF></metadata><sodipodi:namedview
   pagecolor="#ffffff"
   bordercolor="#666666"
   borderopacity="1"
   objecttolerance="10"
   gridtolerance="10"
   guidetolerance="10"
   inkscape:pageopacity="0"
   inkscape:pageshadow="2"
   inkscape:window-width="1213"
   inkscape:window-height="969"
   id="namedview4608"
   showgrid="false"
   inkscape:zoom="4.6794872"
   inkscape:cx="65.772555"
   inkscape:cy="40.189671"
   inkscape:window-x="67"
   inkscape:window-y="36"
   inkscape:window-maximized="1"
   inkscape:current-layer="svg4606" />
<defs
   id="defs4584">
</defs>


<path
   fill="none"
   stroke="#71CAC6"
   stroke-width="2"
   stroke-miterlimit="10"
   d="M72,61c0,6.6-5.4,12-12,12H13C6.4,73,1,67.6,1,61V13  C1,6.4,6.4,1,13,1h47c6.6,0,12,5.4,12,12V61z"
   id="path4590"
   style="stroke:#000000;stroke-opacity:1" />






<path
   id="path4604"
   d="M 55,60.2 H 18.5 c -3,0 -5.3,3.1 -5.3,3.1 22.7,0 0.8,0 46.8,0 0.1,0 -1.9,-3.1 -5,-3.1 z M 45.7,14.7 H 28.4 c -1.4,0 -2.5,-3.1 -2.5,-3.1 10.8,0 0.4,0 22.2,0 -0.1,0 -1,3.1 -2.4,3.1 z m -4,11.1 v 22.6 c 0,2.8 0.1,4.7 0.3,5.6 0.3,1 0.6,1.8 1,2.2 0.4,0.4 1.6,0.6 2.5,0.5 1,-0.2 0.2,1.5 0.2,1.5 h -9.8 c 0,0 -0.1,0.1 -0.1,-0.3 0,-0.4 0.4,-1.8 0.5,-2.2 0.3,-1.4 1.8,-0.2 2.1,-1.1 0.3,-0.8 0.3,-1.4 0.3,-4 V 24.8 c 0,-2.5 0,-3.5 -0.7,-4.2 -0.7,-0.7 -7.6,-3.9 -7.6,-3.9 h 13.2 c 0.2,0 0.4,0 0.5,0 0.3,0 0.5,0.2 0.5,0.6 0,0.4 -0.2,0.6 -0.5,0.8 l -1,0.6 c -0.9,0.5 -1.4,2.9 -1.4,7.1 z m -5.6,0 v 22.6 c 0,2.8 0.1,4.7 0.3,5.6 0.3,1 0.6,0.8 1,1.2 0.4,0.4 2.4,3 2.4,3 h -9.2 c 0,0 -0.5,0.1 -0.5,-0.3 0,-0.4 0.2,-0.6 0.6,-0.7 1,-0.3 1.6,-0.8 1.9,-1.6 0.3,-0.8 0.4,-2.5 0.4,-5 V 24.8 c 0,-2.5 -0.2,-4.2 -0.6,-5 -0.4,-0.9 -1.2,-1.4 -2.3,-1.7 -0.4,-0.1 -0.6,-0.4 -0.6,-0.7 0,-0.4 0.2,-0.6 0.6,-0.6 0.1,0 8,0.4 8,0.4 0.2,0 1,-0.1 1.1,-0.1 0.3,0 -0.2,-0.1 -0.2,0.2 0,0.4 0,3.1 -0.4,3.3 L 37,20.7 c -0.9,0.5 -0.9,0.9 -0.9,5.1 z m -8.9,4.3 V 49 51.2 c 0,0 0,3.1 -0.3,5.1 -0.4,2.3 -1.2,1.3 -1.7,1.3 -0.2,0 -2.8,-6.8 -2.5,-7.9 0.4,-1.1 1.6,1.8 1.6,-1.2 V 34.8 c 0,-3.2 -0.2,-5.2 -0.5,-6 -0.3,-0.8 -1.1,-1.3 -2.4,-1.5 -0.3,0 -0.5,-0.2 -0.5,-0.5 0,-0.4 0.3,-0.5 0.8,-0.5 0.2,0 0.6,0 1,0.1 0.8,0.1 1.5,0.2 2,0.2 0.8,0 2,-0.1 3.6,-0.2 0.8,-0.1 1.8,-0.4 2.2,0 1.6,1.2 -2,1.7 -2.4,2.1 -0.8,0.4 -0.9,1 -0.9,1.6 z m 22.944944,0.586986 v 19 2.2 l 0.1,1.9 c 0.1,1.8 0.7,2.9 1.7,3.2 0.7,0.2 1.2,0.3 1.6,0.3 0.4,0 0.6,0.1 0.6,0.4 0,0.4 -0.2,0.5 -0.7,0.5 -0.2,0 -9,0 -9,0 0,0 -0.5,-0.1 -0.5,-0.4 0,-0.3 -0.5,-0.7 -0.1,-0.8 1,-0.2 2.4,-0.6 2.8,-1.7 0.4,-1.2 0.6,-3.2 0.6,-6.2 v -13.7 c 0,-3.2 -0.2,-5.2 -0.5,-6.1 -0.3,-0.8 -1.1,-1.3 -2.4,-1.5 -0.3,0 -0.5,-0.2 -0.5,-0.5 0,-0.4 0.3,-0.5 0.8,-0.5 0.2,0 0.6,0 1,0.1 0.8,0.1 1.5,0.2 2,0.2 0.8,0 2,-0.1 3.6,-0.3 0.8,-0.1 1.5,-0.1 2,-0.1 2.7,0 4.9,0.8 6.6,2.3 1.7,1.5 2.5,3.5 2.5,6 0,3 -1,5.3 -3.1,7 -1.5,1.3 -3.2,1.9 -4.9,1.9 -0.8,0 -1.6,-0.1 -2.2,-0.3 -0.7,-0.2 -1,-0.4 -1,-0.7 0,-0.2 0.1,-0.3 0.4,-0.3 0.1,0 0.2,0 0.4,0.1 0.3,0.1 0.8,0.2 1.4,0.2 1.9,0 3.3,-0.6 4.4,-1.8 1.1,-1.2 1.7,-2.8 1.7,-4.8 0,-2.3 -0.7,-4.2 -2.2,-5.7 -1.5,-1.5 -3.3,-2.3 -5.6,-2.3 -0.5,0 -0.9,0.1 -1.1,0.3 -0.2,0.2 -0.3,0.7 -0.3,1.3 z M 15.5,34.6 25.9,53.9 c 2.6,2.9 -0.4,5.3 -1.2,3 L 13.7,36.4 C 12.4,33.6 9.6,29.1 9.2,28.6 8.8,28.1 8.3,27.8 7.7,27.7 7,27.6 6.6,27.4 6.5,27.4 6.4,27.3 6.3,27.2 6.3,27 c 0,-0.3 0.2,-0.4 0.5,-0.4 0.1,0 0.3,0 0.6,0 0.2,0 0.9,0 2,0 h 1.8 1.3 c 0.3,0 0.7,0 1.2,-0.1 0.3,0 0.4,0 0.5,0 0.3,0 0.5,0.1 0.5,0.4 0,0.2 0,0.5 -0.3,0.7 -0.5,0.2 -1.1,0.9 -1.2,1.1 -0.1,0.2 0,1.2 0.1,1.5 0.4,1.2 0.8,2.1 2.2,4.4 z" />
</svg>